<svg width="180" height="269" viewBox="0 0 180 269" fill="none" xmlns="http://www.w3.org/2000/svg">
<path d="M39.1207 254.419C39.1207 262.044 68.438 268.227 104.601 268.227C140.765 268.227 170.081 262.044 170.081 254.419C170.081 246.793 140.765 240.61 104.601 240.61C68.438 240.61 39.1207 246.793 39.1207 254.419" fill="#E5E5E0"/>
<path d="M123.505 138.483C123.505 138.483 130.862 156.197 135.766 165.733C140.671 175.27 140.945 182.082 141.761 185.897C142.579 189.711 148.574 225.953 150.753 233.854C152.933 241.756 154.295 244.48 155.93 244.754C157.566 245.026 167.102 244.754 172.007 243.663C176.913 242.574 178.275 243.391 178.002 245.843C177.729 248.297 166.83 254.291 162.198 257.289C157.566 260.285 153.478 261.647 151.843 261.102C150.209 260.558 147.211 252.11 145.031 247.479C142.851 242.846 133.859 226.497 128.41 214.507C122.959 202.518 123.505 186.714 121.053 180.991C118.601 175.27 109.063 164.37 107.155 162.191C105.249 160.011 104.703 145.025 107.973 138.758C111.243 132.489 120.507 134.125 123.505 138.483" fill="#638BD0"/>
<path d="M119.145 141.755C119.145 141.755 112.606 161.373 106.883 176.087C101.161 190.802 85.0833 213.963 81.27 213.963C77.454 213.963 48.8433 195.16 42.5767 189.711C36.31 184.261 20.778 173.363 18.326 171.727C15.8727 170.091 14.238 169.819 14.238 169.819C14.238 169.819 2.52067 181.81 1.15934 181.81C-0.204659 181.81 -0.204677 179.902 0.340656 177.722C0.887323 175.542 6.88067 163.281 8.78734 159.466C10.6953 155.65 14.3007 152.717 17.5087 155.925C27.0447 165.461 38.2167 171.183 49.3887 174.725C60.1927 178.15 65.4647 185.897 70.9153 188.35C76.3647 190.802 76.91 186.986 77.9993 183.989C79.09 180.991 83.1767 156.469 83.1767 150.474C83.1767 144.479 80.9967 131.673 83.1767 128.402C85.3567 125.133 104.975 136.305 109.063 137.939C113.15 139.574 119.145 141.755 119.145 141.755" fill="#56AFE5"/>
<path d="M88.8994 51.0166C88.8994 51.0166 81.5421 57.0112 78.5447 63.2779C75.5474 69.5446 64.3754 86.1672 63.8314 89.1646C63.2848 92.1619 70.6421 101.971 74.1847 108.511C77.7261 115.05 83.4488 123.77 84.2674 124.314C85.0834 124.861 91.0794 118.866 91.0794 118.866C91.0794 118.866 82.6328 101.971 80.9968 98.4285C79.3621 94.8859 79.0901 92.4339 79.0901 91.0712C79.0901 89.7085 90.8061 74.1779 91.6234 72.8139C92.4421 71.4526 88.8994 51.0166 88.8994 51.0166" fill="#CD3C4F"/>
<path d="M121.598 52.106C121.598 52.106 125.957 66.2753 127.591 79.6273C129.227 92.9793 124.322 134.125 124.322 134.125C124.322 134.125 128.682 140.119 126.775 141.755C124.867 143.389 107.973 145.841 99.2527 142.571C90.5341 139.302 80.1794 130.855 81.27 128.402C82.3594 125.95 88.082 118.047 91.0794 111.235C94.0767 104.425 96.2554 102.789 94.3487 98.1553C92.442 93.5246 86.9914 63.8233 86.9914 56.7393C86.9914 49.654 90.8061 49.654 94.8941 46.9287C98.9807 44.2033 107.427 43.114 111.515 44.4766C115.603 45.8393 121.598 52.106 121.598 52.106" fill="#F0354E"/>
<path d="M101.706 13.1407C101.706 13.1407 101.161 4.69399 85.6288 1.15133C70.0981 -2.39134 56.4728 2.24199 55.9288 15.0473C55.3834 27.8553 63.5568 36.302 65.7381 37.1193C67.9181 37.9367 66.8287 32.7593 68.7354 32.214C70.6421 31.67 76.9101 40.1167 76.0928 44.2033C75.2754 48.2913 60.2874 45.5673 57.5634 43.9313C54.8381 42.2966 58.3808 48.0193 61.3781 52.9247C64.3754 57.8287 71.1874 65.186 81.8141 60.0087C92.4421 54.8313 94.0768 42.842 91.3514 36.8473C88.6261 30.8527 86.9914 24.0393 91.0794 19.6807C95.1661 15.3207 100.889 17.5006 100.889 17.5006C100.889 17.5006 102.523 16.4113 101.706 13.1407" fill="#3C3565"/>
<path d="M108.246 32.214C108.246 32.214 103.069 27.5833 101.434 18.8633C99.7981 10.1447 107.701 3.87535 113.695 1.96869C119.69 0.0620209 128.41 4.96604 131.407 9.32604C134.405 13.686 132.225 17.7727 132.497 19.6807C132.77 21.5887 135.222 24.586 134.949 25.9474C134.677 27.31 132.225 28.6727 132.225 28.6727C132.225 28.6727 128.682 36.302 127.319 37.3914C125.957 38.482 118.873 36.03 118.873 36.03L115.603 45.8394L103.069 42.5687L108.246 32.214" fill="#F89D87"/>
<path d="M108.246 32.2141C108.246 32.2141 103.069 27.5834 101.434 18.8634C99.798 10.1447 107.701 3.87542 113.695 1.96875C117.686 0.699418 122.855 2.46742 126.769 5.06608C125.481 4.99275 124.151 5.29544 122.959 6.32878C118.873 9.87011 118.327 18.5914 118.327 18.5914C118.327 18.5914 113.695 15.3208 113.15 19.1354C112.606 22.9501 113.15 24.5861 114.241 25.1301C115.33 25.6754 115.33 25.6754 115.33 25.6754C115.33 25.6754 114.241 30.5807 113.15 31.3981C112.553 31.8461 110.321 32.2047 108.153 32.3994L108.246 32.2141Z" fill="#3C3565"/>
<path d="M104.158 37.1194C104.905 37.4514 115.33 42.0248 120.779 46.9288C126.23 51.8341 125.413 55.6474 124.867 56.4661C124.322 57.2834 114.785 48.0194 111.243 46.9288C107.701 45.8394 93.5314 50.7448 91.6234 51.0168C89.7168 51.2888 88.8994 48.5648 91.0794 44.4768C93.2594 40.3888 99.2528 34.9394 104.158 37.1194" fill="#DCBBA5"/>
<path d="M164.922 62.4607C164.922 62.4607 169.01 57.8287 170.099 56.466C171.19 55.1034 172.825 56.466 172.553 58.1007C172.279 59.7354 171.462 61.37 171.462 61.37L164.922 62.4607Z" fill="#F89D87"/>
<path d="M160.563 70.3634C160.563 70.3634 163.015 64.3687 164.922 62.4607C166.83 60.5527 176.913 58.3727 178.275 60.2807C179.637 62.1887 180.454 67.6381 178.547 68.7274C176.639 69.8167 175.278 68.1834 174.187 69.0007C173.097 69.8167 169.01 74.1781 167.375 75.5394C165.741 76.9021 163.015 75.5394 163.015 75.5394L160.563 70.3634" fill="#F89D87"/>
<path d="M112.333 56.4661C113.15 56.1941 117.238 51.5607 122.415 55.6474C127.591 59.7354 140.399 99.7914 140.399 99.7914C140.399 99.7914 147.755 93.5247 149.937 88.0741C152.115 82.6247 160.018 71.7247 160.563 70.3634C161.109 69.0007 166.285 71.7247 167.375 75.5394C168.465 79.3554 168.193 79.3554 166.013 86.4394C163.833 93.5247 143.669 114.233 138.491 115.322C133.314 116.413 114.785 80.1727 112.878 77.7194" fill="#F0354E"/>
<path d="M150.725 233.749C150.734 233.78 150.745 233.822 150.753 233.854C152.933 241.756 154.295 244.48 155.93 244.754C157.565 245.026 167.103 244.754 172.007 243.663C176.913 242.574 178.275 243.391 178.002 245.843C177.729 248.297 166.83 254.291 162.198 257.289C157.565 260.285 153.478 261.647 151.843 261.102C150.209 260.558 147.211 252.11 145.031 247.479C144.23 245.777 142.507 242.487 140.382 238.422C144.291 237.327 147.977 235.415 150.725 233.749Z" fill="#F89D87"/>
<path d="M172.007 243.663C176.913 242.574 178.275 243.391 178.002 245.843C177.729 248.297 166.83 254.291 162.198 257.289C157.565 260.285 153.478 261.647 151.843 261.102C150.579 260.682 148.503 255.543 146.618 251.091L152.933 250.477C152.933 250.477 152.933 250.477 153.478 246.661C153.777 244.579 154.474 244.217 155.053 244.305C155.339 244.535 155.63 244.703 155.93 244.754C157.565 245.026 167.103 244.754 172.007 243.663" fill="#3C3565"/>
<path d="M8.78741 159.466C10.6954 155.65 14.3008 152.717 17.5088 155.925C22.1061 160.522 27.0888 164.214 32.2621 167.221C31.0274 168.191 29.6967 169.579 28.4074 171.727C27.2567 173.646 26.4101 175.387 25.7541 176.935C22.1861 174.383 19.2741 172.361 18.3261 171.727C15.8727 170.091 14.2381 169.819 14.2381 169.819C14.2381 169.819 2.52075 181.81 1.15941 181.81C-0.204586 181.81 -0.204604 179.902 0.340729 177.722C0.887396 175.542 6.88208 163.281 8.78741 159.466Z" fill="#F89D87"/>
<path d="M8.78743 159.466C10.6954 155.65 14.3008 152.717 17.5088 155.925C18.2221 156.639 18.9634 157.29 19.6954 157.962C19.0088 157.609 17.9461 157.581 16.6901 159.466C14.5101 162.735 10.9687 168.73 10.9687 168.73C10.9687 168.73 14.2381 168.186 14.2381 169.819C14.2381 169.819 2.52077 181.81 1.15943 181.81C-0.204567 181.81 -0.204585 179.902 0.340748 177.722C0.887415 175.542 6.88209 163.281 8.78743 159.466Z" fill="#3C3565"/>
</svg>
