<svg width="163" height="289" viewBox="0 0 163 289" fill="none" xmlns="http://www.w3.org/2000/svg">
<path d="M130.959 274.988C130.959 282.613 101.643 288.796 65.4786 288.796C29.316 288.796 0 282.613 0 274.988C0 267.361 29.316 261.179 65.4786 261.179C101.643 261.179 130.959 267.361 130.959 274.988Z" fill="#E5E5E0"/>
<path d="M129.837 3.67209C129.068 3.67209 121.375 1.87608 114.965 8.03075C108.555 14.1854 110.605 21.8774 111.888 25.9801C113.169 30.0828 113.169 31.6214 112.4 32.9028C111.632 34.1854 107.785 38.2881 107.272 39.5694C106.759 40.8521 117.785 46.7507 117.785 46.7507L126.504 41.6214C126.504 41.6214 134.196 46.2361 134.965 45.9814C135.735 45.7241 138.299 41.6214 140.607 32.1334C142.913 22.6467 142.401 15.4667 139.324 10.0814C136.247 4.6974 129.837 3.67209 129.837 3.67209" fill="#F89D87"/>
<path d="M124.708 24.1853C124.708 24.1853 123.425 20.3387 121.119 23.6721C118.811 27.0054 119.58 29.5693 120.605 30.0827C121.632 30.596 121.632 30.596 121.632 30.596C121.632 30.596 121.119 33.1601 122.657 36.2361C124.195 39.3134 126.504 41.6213 126.504 41.6213" stroke="#3C3565" stroke-width="0.666667" stroke-miterlimit="10"/>
<path d="M141.389 15.5627C140.936 13.5653 140.265 11.728 139.324 10.0814C136.247 4.69737 129.837 3.67206 129.837 3.67206C129.068 3.67206 121.375 1.87605 114.965 8.03072C108.555 14.1854 110.605 21.8774 111.888 25.9801C112.836 29.0147 113.079 30.6427 112.832 31.8054C114.508 31.9441 116.688 31.9307 118.811 31.364C122.657 30.3387 123.425 25.9801 122.657 24.4414C121.888 22.9027 123.939 21.364 123.939 21.364C123.939 21.364 125.477 25.4667 127.272 22.9027C129.068 20.3387 125.991 16.7494 129.068 14.6974C132.144 12.6467 135.477 12.6467 139.324 14.6974C140.036 15.0774 140.721 15.3533 141.389 15.5627" fill="#3C3565"/>
<path d="M141.389 15.5628C141.389 15.5628 143.171 16.7482 145.735 13.4148C148.3 10.0815 148.3 4.18418 146.247 5.72285C144.196 7.26152 143.427 8.03086 143.427 8.03086C143.427 8.03086 141.376 -0.943825 138.555 0.0815083C135.735 1.10817 135.735 3.6722 135.735 3.6722C135.735 3.6722 130.351 -0.430489 129.324 0.850844C128.299 2.13218 127.528 2.64551 127.528 2.64551C127.528 2.64551 128.041 2.90284 126.504 3.41484C124.965 3.92817 123.683 5.72285 123.683 5.72285C123.683 5.72285 132.144 6.74817 134.708 9.31217C137.273 11.8762 141.389 15.5628 141.389 15.5628" fill="#3C3565"/>
<path d="M123.171 58.2893C123.171 58.2893 127.785 59.8267 128.041 67.52C128.299 75.212 134.196 94.9573 134.196 94.9573C134.196 94.9573 141.12 87.264 142.401 85.7253C143.684 84.1867 146.247 83.6747 148.811 88.0333C151.376 92.392 150.607 97.52 146.76 103.675C142.913 109.829 135.735 119.06 129.837 118.035C123.939 117.009 114.195 99.316 113.939 97.264C113.683 95.2133 118.555 74.4427 119.324 71.1093C120.092 67.776 123.171 58.2893 123.171 58.2893Z" fill="#3C3565"/>
<path d="M66.7573 132.393C66.7573 132.393 63.168 137.267 64.4506 141.881C65.732 146.497 67.784 150.856 67.784 150.856C67.784 150.856 59.3213 178.293 57.2706 183.935C55.2186 189.576 56.7573 190.088 51.372 193.421C45.988 196.755 34.192 201.371 30.3467 213.679C26.5 225.987 21.3706 237.525 19.8333 240.603C18.2946 243.68 17.5239 245.475 14.1906 245.475C10.8573 245.475 5.21728 243.936 4.70395 248.296C4.19061 252.655 4.70395 259.065 4.70395 260.604C4.70395 262.143 0.857307 264.707 2.39731 270.091C3.93464 275.476 6.75464 280.348 8.29464 280.86C9.83197 281.373 12.6533 280.604 12.9107 279.323C13.1667 278.04 10.088 275.989 11.628 271.373C13.1666 266.757 20.8573 259.321 25.2173 255.219C29.5773 251.116 39.8333 232.909 47.5253 224.705C55.2186 216.499 63.9373 206.243 70.0906 200.857C76.2439 195.473 88.8093 174.703 91.3733 170.088C93.9373 165.472 96.7586 159.061 96.7586 159.061C96.7586 159.061 123.683 164.189 128.299 164.96C132.913 165.728 137.529 167.267 137.529 167.267C137.529 167.267 129.58 174.189 127.528 184.96C125.477 195.729 120.861 215.217 118.555 221.628C116.245 228.039 114.452 231.884 112.912 235.217C111.375 238.551 108.809 242.911 110.605 244.963C112.4 247.013 122.144 248.296 127.016 249.065C131.888 249.833 141.376 249.577 143.427 247.783C145.477 245.988 145.735 244.963 144.453 244.705C143.171 244.449 135.991 239.833 133.94 238.039C131.888 236.244 130.351 233.167 130.605 231.884C130.861 230.603 142.401 205.217 147.529 194.96C152.657 184.704 158.3 166.755 159.837 162.652C161.376 158.549 161.889 157.779 160.351 155.728C158.812 153.677 149.324 146.497 133.427 137.779C117.528 129.06 108.809 128.804 103.939 128.035C99.0666 127.265 90.8599 119.829 79.8346 124.701C68.8079 129.573 66.7573 132.393 66.7573 132.393" fill="#F89D87"/>
<path d="M123.939 55.7241C123.939 55.7241 124.965 65.4681 123.171 79.0588C121.375 92.6495 111.632 112.907 110.861 117.777C110.092 122.651 113.425 125.727 112.4 127.265C111.375 128.804 109.323 129.317 106.759 129.317C104.195 129.317 94.1934 126.752 86.2454 128.292C78.2974 129.829 69.5774 137.009 67.7841 136.24C65.9881 135.471 63.168 132.393 64.9627 129.317C66.7574 126.24 68.552 124.445 70.0907 121.368C71.6307 118.291 79.3214 93.9308 81.1174 85.9828C82.9121 78.0335 82.1427 68.8015 81.8867 62.3921C81.6307 55.9815 87.0147 45.4681 91.1174 43.9294C95.2201 42.3908 106.759 45.4681 108.041 45.4681C109.323 45.4681 121.632 49.3148 123.939 55.7241" fill="#3C3565"/>
<path d="M117.785 53.6735C117.785 53.6735 123.683 61.1095 124.452 60.5975C125.221 60.0842 128.041 57.5202 125.735 51.3655C123.425 45.2122 118.041 41.1082 112.4 36.2362C106.759 31.3655 100.861 23.9295 97.016 28.2882C93.1694 32.6468 85.9894 42.6468 89.0668 45.9815C92.1428 49.3148 108.299 50.0842 111.888 51.3655C115.477 52.6482 117.785 53.6735 117.785 53.6735" fill="#56AFE5"/>
<path d="M53.936 107.521C53.936 107.521 54.7053 110.599 56.7573 113.932C58.808 117.265 59.8346 120.855 58.552 122.137C57.2706 123.419 57.2707 123.419 52.1413 124.957C47.0133 126.496 44.9626 125.471 44.4493 124.188C43.936 122.907 45.988 121.368 45.988 121.368C45.988 121.368 42.6533 120.599 42.6533 117.265C42.6533 113.932 43.68 107.265 43.68 107.265L53.6813 106.495L53.936 107.521" fill="#F89D87"/>
<path d="M41.8854 102.136C41.8854 102.136 41.6294 107.265 43.1667 108.547C44.7054 109.829 52.9107 108.547 53.9361 107.521C54.9627 106.495 55.2187 99.8281 55.2187 99.8281L41.8854 102.136Z" fill="#56AFE5"/>
<path d="M104.195 51.8786C104.195 51.8786 100.605 48.032 95.22 46.236C89.836 44.4413 72.9106 45.724 61.1159 48.8013C49.3213 51.8786 44.4493 51.6213 42.6533 56.2373C40.8586 60.8533 38.0386 96.752 38.5519 100.855C39.0639 104.957 47.2693 105.213 51.1159 104.188C54.9626 103.161 58.0386 100.599 59.3213 95.2133C60.6039 89.8293 60.348 70.5973 62.1413 68.5453C63.9373 66.4933 85.22 67.776 91.1173 67.0066C97.016 66.2373 101.119 64.4426 102.143 62.904" fill="#3C3565"/>
<path d="M145.735 83.9308C145.735 83.9308 141.376 86.2387 142.144 90.0841C142.913 93.9307 146.76 96.7521 148.3 96.4961C149.837 96.2388 152.913 92.1361 152.913 92.1361C152.913 92.1361 153.427 81.8788 145.735 83.9308Z" fill="#56AFE5"/>
<path d="M145.221 86.7507C145.221 86.7507 147.273 92.6494 149.837 92.9054C152.403 93.1627 153.684 91.624 156.76 88.5454C159.837 85.4694 162.915 83.1614 162.915 79.0587C162.915 74.956 161.889 69.3147 159.581 69.0587C157.273 68.8014 155.479 69.5721 155.479 69.5721C155.479 69.5721 154.709 68.032 152.403 69.8267C150.093 71.6227 150.607 72.9054 149.324 75.212C148.043 77.52 147.787 78.5454 148.043 80.5974C148.3 82.6494 148.3 83.4174 148.3 83.4174L145.221 86.7507" fill="#F89D87"/>
<path d="M155.479 69.5722C156.247 70.8535 157.529 77.7762 156.504 78.8028C155.479 79.8282 153.684 81.8788 153.171 79.5722C152.657 77.2642 151.633 73.9308 151.633 73.9308" stroke="#3C3565" stroke-width="0.666667" stroke-miterlimit="10"/>
<path d="M133.427 137.779C117.528 129.06 108.809 128.804 103.939 128.035C99.0667 127.265 90.86 119.829 79.8346 124.701C68.808 129.573 66.7573 132.393 66.7573 132.393C66.7573 132.393 63.1679 137.267 64.4493 141.881C65.7319 146.497 67.784 150.856 67.784 150.856C67.784 150.856 59.3213 178.293 57.2693 183.935C57.164 184.227 57.1 184.452 57.012 184.719C59.2693 185.513 61.9119 186.509 64.9626 187.78C70.0746 189.909 72.8987 193.372 74.408 196.041C80.8587 187.823 89.32 173.784 91.3733 170.088C93.9386 165.472 96.7586 159.061 96.7586 159.061C96.7586 159.061 123.683 164.189 128.299 164.959C129.855 165.219 131.395 165.565 132.773 165.911C133.432 161.972 134.775 156.584 137.529 151.625C140.061 147.068 142.403 144.953 144.128 143.975C140.977 142.044 137.403 139.959 133.427 137.779" fill="#F0354E"/>
<path d="M143.427 247.783C145.477 245.988 145.735 244.963 144.453 244.705C143.171 244.449 135.991 239.833 133.94 238.039C131.888 236.244 130.351 233.167 130.605 231.884C130.688 231.471 131.956 228.529 133.795 224.412C131.728 224.977 129.159 225.469 127.016 225.217C124.471 224.919 120.797 223.66 118.175 222.661C116.051 228.443 114.364 232.073 112.912 235.217C111.375 238.551 108.809 242.911 110.605 244.963C112.4 247.013 122.144 248.296 127.016 249.065C131.888 249.833 141.376 249.577 143.427 247.783" fill="#DCBBA5"/>
<path d="M144.453 244.705C143.171 244.449 135.991 239.833 133.94 238.039C131.888 236.244 130.351 233.167 130.605 231.884C130.605 231.884 129.58 228.551 127.272 228.039C124.965 227.525 123.939 234.449 123.939 234.449L114.161 232.493C113.725 233.459 113.309 234.356 112.912 235.217C111.375 238.551 108.809 242.911 110.605 244.963C112.4 247.013 122.144 248.296 127.016 249.065C131.888 249.833 141.376 249.577 143.427 247.783C145.477 245.988 145.735 244.963 144.453 244.705" fill="#3C3565"/>
<path d="M22.9107 249.321C20.6334 247.652 19.36 244.832 18.688 242.795C17.6907 244.509 16.6253 245.475 14.1907 245.475C10.8573 245.475 5.21735 243.936 4.70402 248.296C4.19068 252.655 4.70402 259.065 4.70402 260.604C4.70402 262.141 0.857344 264.707 2.39601 270.091C3.93468 275.476 6.75471 280.348 8.29471 280.86C9.83204 281.373 12.6534 280.604 12.9107 279.323C13.1667 278.04 10.088 275.989 11.628 271.373C13.1667 266.757 20.8587 259.321 25.2174 255.219C25.9934 254.488 26.964 253.296 28.0653 251.808C26.4453 251.305 24.5681 250.536 22.9107 249.321Z" fill="#DCBBA5"/>
<path d="M18.964 261.392C18.764 261.052 18.572 260.716 18.2947 260.348C16.756 258.296 14.1907 260.604 14.1907 260.604C14.1907 260.604 11.628 257.783 11.884 253.937C12.0827 250.943 14.7453 246.897 15.9267 245.235C15.4293 245.381 14.8747 245.475 14.1907 245.475C10.8573 245.475 5.21735 243.936 4.70402 248.296C4.19068 252.655 4.70402 259.065 4.70402 260.604C4.70402 262.141 0.857344 264.707 2.39601 270.091C3.93468 275.476 6.75471 280.348 8.29471 280.86C9.83204 281.373 12.6534 280.604 12.9107 279.323C13.1667 278.04 10.088 275.989 11.628 271.373C12.5467 268.613 15.672 264.852 18.964 261.392" fill="#3C3565"/>
</svg>
