<svg width="131" height="288" viewBox="0 0 131 288" fill="none" xmlns="http://www.w3.org/2000/svg">
<path d="M130.96 273.62C130.96 281.244 101.644 287.427 65.4796 287.427C29.3169 287.427 0 281.244 0 273.62C0 265.993 29.3169 259.81 65.4796 259.81C101.644 259.81 130.96 265.993 130.96 273.62" fill="#E5E5E0"/>
<path d="M122.009 132.968C122.009 132.968 124.982 139.457 124.441 141.889C123.901 144.322 119.305 148.108 116.33 148.917C113.357 149.729 110.384 145.133 109.032 141.62C107.681 138.105 104.437 131.617 107.14 129.182C109.844 126.749 119.846 128.372 122.009 132.968" fill="#F89D87"/>
<path d="M124.441 54.8396C124.441 54.8396 124.441 67.8156 125.793 79.981C127.145 92.1463 130.118 101.608 128.496 108.906C126.874 116.206 123.901 132.157 122.009 132.968C120.116 133.78 119.576 130.264 115.25 130.264C110.925 130.264 107.41 132.426 107.41 132.426C107.41 132.426 107.41 119.452 107.95 106.744C108.492 94.0383 104.165 79.1703 109.032 71.8703C113.898 64.5703 117.413 60.245 119.034 57.813C120.657 55.3796 124.441 54.8396 124.441 54.8396" fill="#638BD0"/>
<path d="M104.706 186.495C104.706 186.495 96.3262 188.387 95.2449 188.387C94.1622 188.387 97.1369 178.655 97.1369 178.655C97.1369 178.655 100.922 178.926 102.002 180.547C103.084 182.17 104.706 186.495 104.706 186.495Z" fill="#36314B"/>
<path d="M74.1582 173.248C74.1582 173.248 74.4276 195.958 74.6982 203.526C74.9689 211.097 75.7796 239.482 75.2396 245.699C74.6983 251.918 73.0769 260.027 74.4276 264.084C75.7796 268.138 81.7276 264.894 86.0529 259.487C90.3782 254.08 96.8662 227.046 96.8662 221.369C96.8662 215.692 95.7849 198.661 96.8662 192.173C97.9476 185.684 100.11 176.493 100.11 175.681C100.11 174.87 93.0809 168.382 84.7009 168.382C76.3209 168.382 74.1582 173.248 74.1582 173.248" fill="#F89D87"/>
<path d="M48.4756 181.629C48.4756 181.629 49.5569 194.876 51.4489 200.013C53.3409 205.149 63.6143 210.826 67.6689 206.23C71.7249 201.634 73.6169 189.469 73.0769 188.658C72.5356 187.848 48.4756 181.629 48.4756 181.629Z" fill="#F89D87"/>
<path d="M46.5822 146.754C46.5822 146.754 47.1236 160.542 46.5822 169.463C46.0422 178.385 46.0422 184.062 46.0422 184.062C46.0422 184.062 53.3409 188.929 60.3702 190.01C67.3996 191.09 73.0769 188.658 73.0769 188.658L73.3462 182.71C73.3462 182.71 79.0236 177.845 86.0529 178.655C93.0809 179.466 104.706 186.495 104.706 186.495C104.706 186.495 105.788 168.382 106.869 159.731C107.95 151.079 105.246 140.537 105.246 140.537L46.5822 146.754" fill="#3C3565"/>
<path d="M66.5876 42.4022C66.5876 42.4022 41.7169 46.7289 38.7436 49.1623C35.7689 51.5943 15.2235 94.0382 14.6823 100.526C14.1421 107.014 23.0636 110.258 27.3889 108.637C31.7143 107.014 45.5009 83.2249 45.5009 83.2249C45.5009 83.2249 41.4463 146.485 44.1503 149.458C46.8529 152.433 78.7529 154.594 88.2156 154.594C97.6783 154.594 105.788 151.892 106.869 150.54C107.95 149.188 107.681 126.48 108.762 118.369C109.844 110.258 111.194 78.0876 112.006 75.9249C112.817 73.7622 120.657 66.1929 123.36 61.0569C126.064 55.9196 124.712 51.0543 120.386 49.1623C116.061 47.2689 102.002 42.9436 97.1369 43.2142C92.2716 43.4849 74.1583 40.7809 66.5876 42.4022" fill="#56AFE5"/>
<path d="M57.6663 24.2902C57.6663 24.2902 60.6409 20.5062 71.9956 18.3436C83.3503 16.1809 90.6489 16.1809 96.5969 18.6129C102.544 21.0462 108.221 21.3169 107.681 24.0196C107.14 26.7236 105.788 35.9142 102.002 39.9702C98.2183 44.0249 91.1903 47.2689 83.0796 46.4582C74.9689 45.6476 67.3996 42.4022 63.6143 39.1596C59.8289 35.9142 57.6663 24.2902 57.6663 24.2902" fill="#367CB4"/>
<path d="M83.1822 0.351492C79.0649 1.32349 75.1649 4.21549 73.1769 7.71549C68.9089 15.2288 71.4142 24.7795 73.0769 32.6715C74.1582 37.8075 80.3755 42.4022 83.6195 43.2142C86.8635 44.0248 94.9742 41.3222 96.5969 38.3475C98.2182 35.3742 98.7582 27.5368 98.7582 20.7768C98.7595 14.8408 97.5676 7.38615 93.2236 2.94615C90.4382 0.0981532 86.7289 -0.487175 83.1822 0.351492Z" fill="#F89D87"/>
<path d="M83.1822 0.351662C79.0649 1.32366 75.1649 4.21566 73.1769 7.71566C70.0782 13.1703 70.5609 19.6943 71.6876 25.8823C74.0889 22.8437 79.0622 17.5877 85.5129 16.4503C92.5516 15.2077 96.2569 20.3036 98.7009 24.3396C98.7356 23.1396 98.7596 21.9437 98.7596 20.777C98.7596 14.841 97.5676 7.38632 93.2236 2.94632C90.4382 0.0983231 86.7289 -0.487005 83.1822 0.351662" fill="#F0354E"/>
<path d="M57.6663 24.2902C58.1917 22.8036 62.533 29.4262 69.2916 33.7516C76.0503 38.0769 80.1063 40.5116 86.5943 41.3222C93.081 42.1329 99.029 35.6449 101.733 31.8596C104.437 28.0742 106.329 22.1262 107.681 24.0196C109.032 25.9116 106.6 41.5916 105.518 45.1062C104.437 48.6209 91.7303 51.5942 87.1343 51.5942C82.5383 51.5942 73.8876 50.2422 65.777 46.7289C57.6663 43.2142 54.4223 33.4822 57.6663 24.2902" fill="#638BD0"/>
<path d="M68.2102 97.0129C68.2102 97.0129 73.3462 96.7409 74.4275 97.0129C75.5102 97.2835 76.8609 98.6342 75.5102 99.7155C74.1582 100.797 71.7249 101.338 70.3729 101.608C69.0222 101.878 68.2102 97.0129 68.2102 97.0129Z" fill="#F89D87"/>
<path d="M52.2596 101.067C52.2596 101.067 59.2889 96.2007 60.3703 94.8487C61.4516 93.4981 63.6143 94.3087 66.3183 95.3901C69.0223 96.4714 72.2663 98.9034 71.9956 100.526C71.7249 102.149 70.6436 108.366 67.9396 109.178C65.2369 109.989 61.1809 108.366 61.1809 108.366C61.1809 108.366 59.8289 110.258 57.3969 111.069C54.9636 111.881 51.7196 109.449 50.9089 109.178C50.0969 108.906 52.2596 101.067 52.2596 101.067" fill="#F89D87"/>
<path d="M25.4956 92.6862C25.4956 92.6862 34.9583 95.9302 41.4463 97.8235C47.9343 99.7155 54.4223 99.9862 53.6116 101.608C52.8009 103.23 47.1236 117.017 47.1236 117.017C47.1236 117.017 24.6849 115.666 17.3864 114.044C10.0869 112.421 7.92401 105.664 10.0869 101.338C12.2495 97.0128 19.0077 90.2528 19.0077 90.2528" fill="#56AFE5"/>
<path d="M83.8902 51.3249L81.4569 153.785Z" fill="white"/>
<path d="M83.8902 51.3249L81.4569 153.785" stroke="#3C3565" stroke-width="0.666667" stroke-miterlimit="10"/>
<path d="M73.3463 182.71L75.2397 158.92Z" fill="white"/>
<path d="M73.3463 182.71L75.2397 158.92" stroke="#3C3565" stroke-width="0.666667" stroke-miterlimit="10"/>
<path d="M86.8636 254.622C86.8636 254.622 82.5383 249.755 79.8343 249.755C77.1316 249.755 71.725 256.785 70.913 262.461C70.1023 268.138 71.725 269.49 70.913 271.653C70.1023 273.815 68.481 274.086 68.481 276.518C68.481 278.953 72.5356 281.385 75.5103 280.032C78.4836 278.68 83.3503 274.086 86.5943 266.246C89.8383 258.405 86.8636 254.622 86.8636 254.622" fill="#F0354E"/>
</svg>
