<svg width="250" height="302" viewBox="0 0 250 302" fill="none" xmlns="http://www.w3.org/2000/svg">
<path d="M151.427 86.7797L161.695 104.268L176.139 105.876L167.797 79.6557L151.427 86.7797" fill="#E67A71"/>
<path d="M164.269 100.346L210.538 78.1756L216.94 87.5476L173.272 111.262C170.326 112.861 166.646 111.916 164.838 109.094L160.372 102.128L164.269 100.346" fill="#E67A71"/>
<path d="M154.209 95.3477L171.372 86.149L160.788 52.261C159.812 49.133 157.596 46.6543 154.757 45.5103C148.884 43.145 142.473 47.1477 141.356 53.877L141.284 54.3157C140.954 56.3023 141.132 58.349 141.797 60.2303L154.209 95.3477" fill="#E2982C"/>
<path d="M211.493 75.429C212.589 72.6383 213.578 69.5503 216.034 67.833C218.761 65.9276 222.709 66.3996 225.333 68.4423C227.957 70.4863 229.358 73.8063 229.688 77.117C229.916 79.4103 229.624 81.8863 228.194 83.6943C226.677 85.6157 224.193 86.437 221.856 87.161C219.285 87.957 216.609 88.7623 213.948 88.373C211.486 88.0143 207.374 85.7796 206.972 82.9676C206.745 81.385 208.082 80.8917 209.026 79.821C210.137 78.5597 210.884 76.9796 211.493 75.429" fill="#E67A71"/>
<path d="M160.549 102.046L159.656 100.59C161.924 95.1877 164.973 92.7397 167.817 90.8837L165.176 99.9117L164.269 100.346L160.549 102.046Z" fill="#B1625D"/>
<path d="M163.261 106.46L160.549 102.046L164.269 100.346L165.176 99.9117L163.261 106.46" fill="#B1625D"/>
<path d="M197.319 188.488L215.743 285.213L200.813 288.706C200.813 288.706 201.607 271.872 193.235 255.193L182.247 234.476C179.837 229.934 178.576 224.87 178.576 219.729V194.205L197.319 188.488Z" fill="#E67A71"/>
<path d="M202.097 284.04C204.141 285.585 206.751 287.209 209.084 286.153C210.689 285.425 211.533 283.634 211.909 281.913C212.285 280.192 212.336 278.386 212.987 276.748C213.637 275.11 215.136 273.613 216.896 273.724C218.964 273.854 220.216 275.965 221.396 277.672C225.839 284.1 234.327 287.445 241.961 285.777C244.057 285.318 246.541 284.616 248.117 286.072C249.648 287.488 249.201 290.04 248.201 291.872C245.912 296.072 241.509 298.792 236.908 300.1C232.307 301.408 227.457 301.473 222.675 301.531C215.361 301.62 208.048 301.707 200.735 301.796C199.495 301.809 198.228 301.82 197.049 301.437C195.869 301.053 194.772 300.196 194.433 299.004C194.069 297.721 194.631 296.384 195.077 295.129C196.296 291.701 196.503 288.276 196.32 284.681C196.259 283.485 196.125 281.58 197.787 281.333C199.2 281.124 201.063 283.256 202.097 284.04" fill="#43244D"/>
<path d="M119.736 232.237C104.402 232.409 18.9498 230.453 18.9498 230.453L18.5613 215.125C18.5613 215.125 34.8847 219.322 52.9155 214.514L75.4326 207.964C88.2249 204.241 103.518 207.645 115.517 212.748C116.381 219.154 119.146 225.8 119.736 232.237Z" fill="#E67A71"/>
<path d="M104.372 208.997C105.401 210.684 105.923 213.893 106.955 215.506C108.957 218.642 111.001 221.753 113.179 224.772C115.117 227.458 117.177 230.04 119.373 232.494C119.567 232.433 119.761 232.384 119.953 232.312C123.223 231.097 125.821 228.553 127.107 225.31L153.508 158.686L133.696 131.39C100.944 133.486 109.353 168.689 109.353 168.689L104.372 208.997" fill="#29192D"/>
<path d="M22.8698 217.332C20.9417 219.018 18.8213 221.244 19.3824 223.744C19.7682 225.462 21.3494 226.652 22.9584 227.37C24.5677 228.089 26.3256 228.505 27.798 229.474C29.2693 230.444 30.4308 232.217 29.9652 233.916C29.4172 235.914 27.0953 236.713 25.1865 237.521C17.989 240.566 12.9896 248.196 13.0718 256.01C13.0942 258.156 13.2786 260.733 11.5328 261.978C9.83384 263.19 7.42664 262.234 5.83597 260.884C2.18904 257.788 0.420375 252.924 0.0745087 248.153C-0.271358 243.382 0.648508 238.621 1.56411 233.925C2.96357 226.746 4.36358 219.569 5.76251 212.39C5.99998 211.173 6.24638 209.93 6.86198 208.854C7.47704 207.777 8.53851 206.876 9.77557 206.788C11.1046 206.69 12.301 207.513 13.4396 208.205C16.5469 210.094 19.86 210.993 23.4172 211.544C24.599 211.728 26.4917 211.984 26.3958 213.661C26.3146 215.085 23.848 216.477 22.8698 217.332" fill="#43244D"/>
<path d="M178.505 202.804C180.372 201.306 182.26 199.836 184.176 198.406C187.489 195.933 190.858 193.534 194.188 191.081C195.446 190.154 196.636 189.145 197.849 188.17C197.394 186.986 196.756 185.866 195.944 184.858L150.941 129.085L118.776 134.096C104.482 163.637 137.917 172.446 137.917 172.446L177.542 202.165C177.852 202.397 178.177 202.602 178.505 202.804" fill="#43244D"/>
<path d="M161.678 46.8304C155.532 42.4598 149.64 36.8398 149.64 36.8398C145.15 37.2571 127.121 50.6544 126.324 79.5651C125.694 102.368 127.464 100.376 125.574 107.89C123.946 114.366 123.662 127.013 109.233 140.161L155.5 132.046C155.897 124.917 156.625 119.636 157.262 109.256C160.814 88.4945 171.81 92.2598 175.02 84.1238C180.118 71.1931 170.182 69.5704 161.678 46.8304" fill="#F9A932"/>
<path d="M126.615 76.4797C128.239 55.4091 139.125 43.2758 145.712 38.9611C147.057 43.5011 149.674 47.1384 148.969 52.2251C148.304 57.0371 145.422 61.0477 142.06 64.3971C137.425 69.0117 132.099 72.8691 126.615 76.4797" fill="#C78A2D"/>
<path d="M114.152 49.5251L94.3191 61.6305L95.2488 74.3865L121.404 65.8411L114.152 49.5251" fill="#E67A71"/>
<path d="M100.687 62.4731L123.216 108.569L113.895 115.042L89.84 71.5612C88.2181 68.6292 89.1348 64.9411 91.9421 63.1105L99.1722 58.9678L100.687 62.4731Z" fill="#E67A71"/>
<path d="M125.97 109.502C128.769 110.577 131.865 111.541 133.601 113.985C135.528 116.696 135.088 120.646 133.064 123.288C131.041 125.926 127.73 127.354 124.424 127.708C122.132 127.954 119.654 127.682 117.834 126.266C115.902 124.764 115.062 122.288 114.32 119.956C113.504 117.392 112.677 114.722 113.045 112.057C113.386 109.593 115.588 105.465 118.396 105.04C119.977 104.8 120.481 106.133 121.56 107.069C122.829 108.17 124.414 108.905 125.97 109.502" fill="#E67A71"/>
<path d="M105.607 52.3744L114.937 69.4651L148.741 58.6184C151.863 57.6171 154.324 55.3824 155.447 52.5331C157.765 46.6424 153.713 40.2624 146.976 39.1984L146.535 39.1304C144.547 38.8158 142.503 39.0091 140.625 39.6878L105.607 52.3744" fill="#F9A932"/>
<path d="M179.069 28.2036C179.667 29.3676 178.701 30.7436 177.407 30.5556C176.619 30.441 176.532 30.4503 175.752 30.281C175.285 30.1796 174.937 29.7716 174.633 29.405C173.531 28.0796 174.292 22.6103 176.955 23.373C176.952 23.8076 176.735 24.3503 177.125 24.801C178.009 26.213 178.441 26.981 179.069 28.2036" fill="#E67A71"/>
<path d="M149.64 36.8917C155.972 48.3877 158.717 50.537 160.025 50.0957C160.816 49.829 160.908 48.6703 161.643 47.069C163.411 43.2143 166.952 41.0477 169.887 39.7863C164.708 37.7437 161.655 30.8463 156.476 28.8023C156.476 28.8023 154.807 33.6557 149.64 36.8917" fill="#CF7068"/>
<path d="M173.037 10.321C169.573 7.11965 164.316 6.09963 159.823 7.53697C155.329 8.9743 151.705 12.7263 150.173 17.1876C148.641 21.6503 156.581 25.8636 156.372 30.577C156.163 35.2743 157.191 39.0956 161.86 40.169C166.679 41.2756 166.34 41.589 171.349 41.041C172.581 40.9063 173.307 40.0223 173.719 38.597C174.105 37.2583 177.836 23.493 177.203 18.5623C176.944 16.537 176.548 12.645 175.577 10.8503C174.607 9.05431 172.892 9.39165 170.852 9.45165" fill="#E67A71"/>
<path d="M160.546 23.2344C160.546 24.9438 159.31 26.3291 157.785 26.3291C156.258 26.3291 155.022 24.9438 155.022 23.2344C155.022 21.5251 156.258 20.1384 157.785 20.1384C159.31 20.1384 160.546 21.5251 160.546 23.2344Z" fill="#E67A71"/>
<path d="M158.147 23.2903C162.187 19.3516 178.84 15.6596 178.325 8.34094C178.115 5.35427 174.311 2.92626 171.941 1.80093C166.031 -1.00307 157.986 -0.417713 152.25 2.75829C146.733 5.81162 144.281 11.5876 144.109 17.7023C143.883 25.7956 147.343 29.9236 151.559 32.0063C153.327 32.8783 155.541 35.2049 158.147 23.2903" fill="#43244D"/>
<path d="M141.56 11.2598C141.703 12.3158 142.208 13.6704 143.367 14.3664C144.039 14.7691 144.755 14.8184 145.268 14.6371C145.784 14.4571 146.129 14.0771 146.44 13.6811C147.869 11.8611 148.745 9.58379 149.003 7.01579C149.104 6.01579 148.785 4.21446 147.108 3.57712C145.86 3.10512 144.633 4.10778 143.979 4.60378C142.103 6.02245 141.175 8.4238 141.56 11.2598" fill="#F03756"/>
<path d="M124.753 5.3836C123.841 7.12893 123.786 9.21825 122.9 10.9743C121.426 13.8929 117.976 15.2743 114.723 15.5916C111.469 15.9089 108.175 15.4143 104.926 15.7716C101.677 16.1276 98.2446 17.6023 96.8769 20.5716C94.9749 24.6983 97.8165 29.4463 97.603 33.9863C97.4545 37.1356 95.8222 40.0969 95.8254 43.2503C95.8301 47.6903 99.5774 51.8116 103.996 52.2383C108.416 52.6636 112.88 49.3343 113.732 44.9769C114.205 42.5569 113.767 39.7623 115.359 37.8783C117.875 34.8996 122.867 36.8303 126.475 35.3516C129.256 34.2103 130.8 31.1396 131.207 28.1622C131.613 25.1849 131.126 22.1649 131.1 19.1596C131.072 16.1543 131.599 12.9422 133.641 10.7369C136.008 8.18092 140.125 7.69558 143.084 9.46625C147.525 2.73558 128.539 -1.86707 124.753 5.3836Z" fill="#43244D"/>
</svg>
