<svg width="909" height="1361" viewBox="0 0 909 1361" fill="none" xmlns="http://www.w3.org/2000/svg">
<path d="M529.083 1360.16C503.777 1360.16 478.483 1359.49 453.257 1357.58C431.123 1355.92 399.75 1356.02 380.83 1346.09C364.763 1337.65 367.55 1325.25 383.27 1317.72C402.777 1308.38 522.43 1297.24 522.43 1297.24C546.937 1295.25 571.523 1293.82 596.11 1292.76C616.27 1291.88 638.043 1289.57 659.403 1289.57C676.39 1289.57 693.11 1291.02 708.55 1295.82C730.11 1302.5 762.763 1334.73 733.137 1348.48C728.47 1350.65 723.377 1352.09 718.043 1353.09C704.95 1355.52 690.47 1355.16 677.563 1355.8C655.523 1356.89 633.47 1357.8 611.403 1358.49C583.99 1359.37 556.537 1360.16 529.083 1360.16" fill="#8984B2"/>
<path d="M712.657 126.947C709.75 130.427 706.75 131.04 704.696 132.187C703.19 132.987 702.19 134.094 701.976 136.734C701.523 143.027 694.15 149.974 693.417 148.2C692.697 146.494 695.39 90.107 695.843 86.4937C695.843 88.1737 700.417 98.6271 704.403 106.8C704.683 107.387 704.99 107.96 705.323 108.494C709.603 115.507 717.67 120.987 712.657 126.947Z" fill="#F8BD8C"/>
<path d="M783.977 930.825C787.19 912.158 775.817 884.785 737.443 833.891C732.683 827.571 727.777 820.931 722.763 814.078C684.15 837.105 650.377 864.438 620.11 895.331C651.283 922.251 677.803 944.211 699.643 957.638C688.87 979.731 677.39 1008.12 669.47 1040.84C663.083 1067.29 655.47 1101.64 649.19 1135.86C640.75 1182.54 634.83 1228.98 637.843 1254.96C639.177 1266.93 642.43 1274.72 648.35 1276.02C654.99 1277.58 662.71 1270.88 670.803 1259.16C686.617 1235.93 704.003 1193.08 717.883 1154.9C726.457 1131.44 733.697 1109.65 738.537 1095.29C752.35 1053.78 791.43 969.918 783.977 930.825" fill="#F8BD8C"/>
<path d="M372.15 792.625C347.843 847.585 329.11 891.318 325.35 920.825C300.283 924.691 268.763 931.798 235.603 944.838C207.11 956.091 169.923 971.651 134.91 988.291C75.7632 1016.17 22.8832 1046.94 29.5232 1063.45C36.6432 1081.29 103.763 1067.41 161.83 1051.96C189.123 1044.66 214.35 1037.12 230.403 1032.21C275.057 1018.8 374.83 1000.98 396.283 969.331C412.23 960.105 431.83 939.771 459.176 901.985C460.99 899.491 462.843 896.945 464.737 894.371C437.323 856.518 414.137 814.718 372.15 792.625" fill="#F8BD8C"/>
<path d="M683.363 63.1856C689.883 66.6656 680.563 60.7323 686.257 66.1856C722.057 100.466 699.67 183.946 678.696 192.492C670.95 195.652 651.63 193.639 644.39 206.092C637.15 218.546 622.27 261.759 602.963 278.159L547.91 210.532C550.683 204.546 553.456 198.439 556.243 192.346C559.496 185.279 567.23 163.732 567.47 159.666C567.59 157.986 568.19 156.786 568.31 155.359C568.43 153.439 565.657 149.492 566.257 148.052C567.23 145.892 572.296 146.612 574.23 145.772C576.883 144.586 579.656 141.946 581.95 139.919C586.776 135.599 592.696 132.252 597.163 127.586C602.11 122.799 606.217 116.452 610.323 110.826C625.897 89.6389 646.776 67.3856 673.696 62.3589C677.803 61.5189 680.95 61.999 683.363 63.1856" fill="#F8BD8C"/>
<path d="M745.257 834.691C745.257 834.691 731.63 861.358 700.15 890.425C688.563 901.185 677.47 910.398 668.79 917.451C658.297 925.825 651.417 930.718 651.417 930.718C651.417 930.718 545.643 861.358 484.976 799.665C480.51 795.118 476.163 790.571 472.19 786.145C415.137 721.571 430.937 650.891 430.937 650.891L491.123 602.465C491.123 602.465 602.577 567.185 612.097 626.865C621.51 686.531 745.257 834.691 745.257 834.691" fill="#56548C"/>
<path d="M668.79 917.452C658.283 925.825 652.243 931.345 652.243 931.345C652.243 931.345 547.55 862.852 486.816 801.092L572.776 707.972C572.776 707.972 572.776 786.372 594.15 824.425C609.603 852.198 668.79 917.452 668.79 917.452Z" fill="#3D3D6B"/>
<path d="M462.417 917.692C462.417 917.692 364.003 869.612 339.63 835.412C337.697 832.665 461.216 588.478 464.11 586.918C467.003 585.372 553.723 568.745 554.923 568.505C557.817 567.905 575.55 595.412 577.483 597.918C591.11 615.745 604.737 633.558 618.363 651.372C624.283 659.265 630.19 667.278 636.337 674.932C627.297 685.692 623.923 697.292 618.976 710.212C615.23 720.252 611.497 730.425 607.87 740.705C605.59 747.398 603.657 755.412 598.47 760.318C588.097 769.998 573.87 776.105 562.643 784.705C548.176 795.838 538.643 811.252 528.15 825.972C517.297 841.038 506.443 856.225 495.59 871.292C484.617 886.718 473.51 902.145 462.417 917.692" fill="#56548C"/>
<path d="M652.697 535.491C651.857 530.585 609.603 511.678 596.563 516.585C583.403 521.491 575.07 531.065 565.537 526.638C558.643 523.438 482.683 468.851 435.79 439.051C451.003 424.958 467.363 408.091 483.35 390.105C459.137 371.865 439.816 350.785 419.043 328.118C408.936 341.505 398.737 355.531 389.523 369.118C367.55 401.398 351.217 435.691 351.523 457.118C351.443 458.931 351.603 460.798 352.017 462.731L352.03 462.771C352.083 463.011 352.15 463.251 352.203 463.491C352.803 466.251 353.777 468.691 355.19 470.758C357.763 475.265 361.763 480.011 367.55 484.985C398.457 511.678 478.737 535.131 518.337 548.905C557.923 562.665 570.723 568.531 586.057 580.625C601.27 592.585 623.363 594.625 631.817 576.545C640.257 558.478 634.59 553.331 641.11 548.665C647.63 543.998 653.657 540.398 652.697 535.491" fill="#F8BD8C"/>
<path d="M523.35 215.132C523.35 215.132 460.977 246.105 386.67 360.305C386.67 360.305 399.936 379.918 425.51 400.972C450.23 421.412 464.59 425.238 464.59 425.238L508.257 379.198L523.35 215.132Z" fill="#BC4676"/>
<path d="M430.937 650.892C425.39 652.212 488.23 471.758 478.937 422.732C469.537 373.705 448.07 285.572 486.177 244.558C524.297 203.532 559.75 200.065 590.39 209.638C621.15 219.318 661.31 264.158 666.257 343.212C671.083 422.252 636.337 675.052 636.337 675.052C636.337 675.052 465.67 642.292 430.937 650.892" fill="#FE6E8D"/>
<path d="M900.416 319.452C884.963 304.372 877.603 308.318 875.19 300.185C872.657 291.918 871.203 284.505 865.776 283.665C860.456 282.825 826.056 318.612 826.416 333.452C826.656 348.412 833.416 360.265 825.576 368.291C820.003 373.971 739.763 428.918 692.057 465.505C685.27 445.878 676.683 424.465 667.096 403.158C640.99 421.571 610.43 424.905 580.457 430.758C590.083 449.051 600.79 468.545 611.536 486.305C631.643 519.665 656.003 548.825 675.71 557.705C678.163 558.998 680.896 559.878 683.95 560.251C684.15 560.291 684.35 560.291 684.55 560.318C685.043 560.371 685.536 560.412 686.03 560.438C686.496 560.452 686.95 560.465 687.403 560.465C694.216 560.452 702.39 558.132 712.216 552.612C750.483 531.065 803.243 458.652 831.483 423.705C859.736 388.758 870.363 377.985 888.11 366.972C905.976 355.838 915.87 334.412 900.416 319.452" fill="#F8BD8C"/>
<path d="M689.643 413.532C689.643 413.532 663.723 428.705 631.523 444.372C599.19 460.172 570.843 462.305 570.843 462.305C570.683 462.185 568.763 457.718 565.71 450.358C552.883 419.505 520.35 337.838 515.003 311.878C509.337 283.905 537.683 245.038 554.683 238.105C597.27 220.625 624.39 252.812 636.337 267.625C640.763 273.172 649.23 294.638 658.137 319.478C673.27 361.652 689.643 413.532 689.643 413.532" fill="#F7668B"/>
<path d="M161.83 1051.96C103.763 1067.41 36.6432 1081.29 29.5232 1063.45C22.8832 1046.94 75.7632 1016.17 134.91 988.291L161.83 1051.96Z" fill="#3D3C3B"/>
<path d="M717.883 1154.9C704.003 1193.08 686.617 1235.93 670.803 1259.16L637.843 1254.96C634.83 1228.98 640.75 1182.54 649.19 1135.86L717.883 1154.9Z" fill="#3D3C3B"/>
<path d="M642.857 624.705C640.083 646.598 642.857 694.665 642.857 694.665C642.857 694.665 634.417 715.478 602.083 703.158C447.457 643.838 420.443 695.625 405.123 687.612C399.337 684.745 419.603 671.225 428.883 638.705C438.177 606.292 477.257 516.492 477.257 516.492L642.857 624.705" fill="#FE6E8D"/>
<path d="M697.603 14.8927C697.323 14.1194 697.003 13.3328 696.417 12.7728C693.617 10.0928 681.497 13.346 677.87 13.7594C671.323 14.5327 664.764 15.3594 658.19 15.9194C657.284 15.9861 656.364 16.0528 655.457 16.1328C672.737 10.8128 677.857 4.02611 678.137 3.63945C678.883 2.61278 678.657 1.18611 677.63 0.439447C676.59 -0.30722 675.163 -0.0806315 674.417 0.959368C674.337 1.06604 666.177 11.8527 632.843 16.1594C624.857 17.186 618.457 18.2661 613.297 19.3194C597.297 20.8261 579.297 24.3994 570.483 38.8927C569.137 41.1327 568.19 44.5994 566.803 46.7061C563.67 44.3194 559.083 43.6928 546.177 44.3061C544.91 44.3728 543.924 45.4394 543.99 46.7061C544.044 47.9728 545.137 48.9327 546.39 48.8927C555.924 48.4394 560.123 48.6127 562.63 49.6527C561.51 50.0261 560.257 50.3861 558.897 50.9861C550.443 54.6927 545.497 62.8394 542.47 71.2127C536.443 87.3727 539.577 105.079 546.697 120.399C550.083 127.706 554.19 134.773 557.924 141.946C559.617 145.186 561.19 148.293 562.15 151.879C563.123 155.479 563.603 159.066 564.937 162.533C565.177 163.013 565.417 163.613 565.897 163.853C566.257 164.093 566.857 164.213 567.35 164.213C579.657 165.053 623.417 163.906 610.217 151.279C592.043 133.893 605.604 122.893 615.99 121.213C626.244 119.426 630.243 147.333 641.83 143.386C653.297 139.319 638.203 108.199 651.363 102.573C665.137 96.7061 652.817 82.5861 663.083 73.2394C667.67 69.1728 679.017 70.4928 684.324 67.5061C684.924 67.1461 685.537 66.6661 686.257 66.1861C701.577 56.0661 703.323 30.5594 697.603 14.8927" fill="#3D3C3B"/>
<path d="M693.297 106.96C693.297 109.973 690.857 112.413 687.843 112.413C684.83 112.413 682.39 109.973 682.39 106.96C682.39 103.96 684.83 101.52 687.843 101.52C690.857 101.52 693.297 103.96 693.297 106.96Z" fill="#3D3C3B"/>
<path d="M702.617 91.6933L702.523 91.7866C702.377 91.88 702.19 91.8667 702.017 91.8667C694.19 91.5467 685.963 90.12 678.403 92.92C676.057 93.7866 673.897 95.04 671.777 96.3334C669.83 97.52 667.577 99.4399 665.39 100.027C665.403 99.3199 666.163 98.0667 666.603 97.44C667.243 96.52 667.977 95.7066 668.75 94.92C670.857 92.76 672.937 90.2933 675.39 88.5467C681.377 84.2533 689.75 83.1867 696.857 84.48C698.803 84.8267 700.843 85.4533 702.057 87.0133C702.99 88.2133 703.283 89.8934 702.803 91.3334C702.763 91.4667 702.71 91.5999 702.617 91.6933" fill="#3D3C3B"/>
<path d="M391.336 366.491C390.736 367.371 390.136 368.251 389.55 369.118C389.176 369.678 388.803 370.225 388.43 370.771C386.323 367.625 386.67 360.305 386.67 360.305L386.696 360.332L386.736 360.385C387.03 360.811 388.576 363.025 391.336 366.491" fill="#892959"/>
<path d="M464.617 425.238C460.217 425.985 453.283 424.598 451.27 424.158C452.363 423.065 453.443 421.985 454.523 420.878C460.83 424.185 464.35 425.172 464.59 425.238H464.617" fill="#892959"/>
<path d="M689.643 413.532C689.643 413.532 692.643 420.038 679.763 432.825L675.163 421.692L689.643 413.532Z" fill="#892959"/>
<path d="M570.843 462.305C570.683 462.198 568.763 457.718 565.71 450.358C565.31 449.385 564.883 448.385 564.443 447.318C564.883 448.372 565.31 449.398 565.71 450.358C568.763 457.718 570.683 462.185 570.843 462.305ZM572.924 462.092C576.524 461.678 584.524 460.545 595.07 457.812C584.524 460.545 576.524 461.678 572.924 462.092Z" fill="#DB567C"/>
<path d="M595.07 457.812C605.376 455.132 618.11 450.932 631.523 444.372C633.457 443.438 635.35 442.505 637.23 441.572C635.35 442.505 633.443 443.438 631.523 444.372C618.097 450.932 605.363 455.132 595.07 457.812ZM664.536 427.478C668.456 425.372 672.03 423.425 675.163 421.691C672.03 423.425 668.456 425.372 664.536 427.478Z" fill="#D8807C"/>
<path d="M570.843 462.305C570.683 462.185 568.763 457.718 565.71 450.358C565.31 449.398 564.883 448.372 564.443 447.318C590.537 433.505 662.057 391.292 658.363 325.398C658.323 324.652 658.63 323.425 659.057 322.052C673.844 363.532 689.497 413.052 689.643 413.532L675.163 421.692C672.03 423.425 668.457 425.372 664.537 427.478C656.644 431.705 647.323 436.572 637.23 441.572C635.35 442.505 633.457 443.438 631.524 444.372C618.11 450.932 605.377 455.132 595.07 457.812C584.524 460.545 576.524 461.678 572.924 462.092C571.604 462.252 570.87 462.305 570.843 462.305" fill="#D7527B"/>
<path d="M675.163 421.692L689.643 413.532C689.643 413.532 684.19 416.732 675.163 421.692Z" fill="#9D3161"/>
<path d="M84.0701 1186.18C83.7101 1187.8 83.1767 1189.3 82.4834 1190.64C76.1367 1202.94 51.8967 1188.7 45.1233 1182.58C35.11 1173.53 31.0967 1151.54 28.39 1138.49C23.95 1117.14 19.5234 1095.77 14.9767 1074.44C11.9101 1059.98 4.1634 1048.06 0.243401 1034.34C-1.12993 1029.57 3.59009 1022.33 7.33676 1019.61C8.92343 1018.45 13.03 1018 17.2967 1017.86C17.19 1018.06 17.07 1018.28 16.95 1018.48C14.79 1022.36 45.19 1052 48.8167 1116.49C52.39 1180.96 76.27 1185.68 76.6167 1188.34C76.63 1188.69 76.5901 1188.98 76.4701 1189.21C77.0434 1188.96 77.7633 1188.73 78.6967 1188.41C81.2967 1187.58 82.9768 1186.82 84.0701 1186.18" fill="#3D3C3B"/>
<path d="M122.603 1080.76C121.003 1086.62 112.296 1087.86 110.256 1094.24C109.843 1095.5 109.11 1100 108.043 1106.36C107.55 1109.38 106.976 1112.84 106.323 1116.57C105.896 1119.01 105.443 1121.56 104.963 1124.22C104.376 1127.48 103.75 1130.86 103.07 1134.32C102.63 1136.44 102.203 1138.62 101.763 1140.77C101.043 1144.05 100.323 1147.34 99.5366 1150.54C95.8566 1165.94 91.3232 1179.62 86.1099 1184.24C86.1099 1184.37 85.8965 1186.12 78.7099 1188.41C77.7632 1188.73 77.0565 1188.97 76.4832 1189.21C76.5898 1188.98 76.6432 1188.69 76.6032 1188.34C76.2832 1185.69 52.4032 1180.94 48.8032 1116.49C45.1899 1052 14.7898 1022.37 16.9498 1018.46C19.1232 1014.57 20.8965 1009.8 38.1099 1006.81C55.3232 1003.86 92.7765 1005.53 92.7765 1005.53C88.6832 1013.69 79.6698 1031.73 85.0298 1040.86C86.3764 1043.14 88.6165 1044.61 90.7765 1045.98C102.31 1053.32 119.376 1060.33 122.523 1076.34C122.95 1078.08 122.937 1079.52 122.603 1080.76" fill="#56548C"/>
<path d="M108.043 1106.33V1106.36C107.55 1109.38 106.976 1112.84 106.323 1116.57L85.7897 1096.74C84.1097 1095.13 83.9497 1092.33 85.4564 1090.5C86.323 1089.49 87.5097 1088.98 88.6831 1089.01C89.6164 1089.05 90.523 1089.42 91.2564 1090.13L108.043 1106.33Z" fill="#3D3C3B"/>
<path d="M104.963 1124.23C104.376 1127.48 103.75 1130.87 103.07 1134.32L81.2699 1113.27C79.5766 1111.65 79.4565 1108.81 80.9499 1107.01C81.7899 1105.99 82.9898 1105.49 84.1631 1105.53C85.0831 1105.56 86.0032 1105.91 86.7366 1106.63L104.963 1124.23" fill="#3D3C3B"/>
<path d="M101.763 1140.77C101.043 1144.05 100.323 1147.34 99.5366 1150.54L78.8565 1130.58C77.1765 1128.97 77.0565 1126.16 78.5499 1124.33C79.3899 1123.3 80.5633 1122.81 81.7366 1122.85C82.6566 1122.88 83.6033 1123.25 84.3366 1123.97L101.763 1140.77" fill="#3D3C3B"/>
<path d="M781.963 1305.92C781.87 1311.22 778.91 1315.52 772.203 1321.45C760.43 1331.85 735.043 1325.68 721.537 1322.84C703.777 1319.09 686.403 1313.46 668.337 1311.22C653.177 1309.32 612.163 1317.25 604.937 1298.02C601.243 1288.22 605.577 1278.34 609.083 1272.61C609.737 1278.16 611.27 1279.42 614.257 1280.92C618.75 1283.17 647.03 1281.29 664.724 1286.04C682.377 1290.84 723.403 1304.74 739.35 1311.56C749.75 1316 767.75 1318.13 777.59 1311.04C779.777 1309.45 781.177 1307.73 781.963 1305.92" fill="#3D3C3B"/>
<path d="M739.35 1311.56C723.403 1304.76 682.39 1290.84 664.723 1286.05C647.043 1281.28 618.75 1283.16 614.256 1280.93C610.83 1279.21 609.31 1277.81 608.896 1269.96C608.83 1268.96 608.79 1267.88 608.763 1266.7C608.75 1265 608.736 1263.02 608.75 1260.81C608.923 1244.62 630.803 1213.04 630.803 1213.04C630.803 1213.04 646.816 1229.8 653.03 1230.01C659.243 1230.24 668.35 1230.57 681.656 1218.58C694.963 1206.61 709.95 1216.29 714.483 1217.69C718.99 1219.1 720.883 1235.76 722.043 1238.29C724.336 1243.28 728.443 1248.22 733.416 1253.01C736.243 1255.73 739.363 1258.38 742.576 1260.96C744.03 1262.16 745.523 1263.33 747.03 1264.48C750.496 1267.12 753.99 1269.69 757.296 1272.1C758.576 1273.04 759.843 1273.96 761.056 1274.85C764.75 1277.57 768.07 1280.1 770.696 1282.37L770.936 1282.57C778.656 1289.25 789.403 1302.52 777.59 1311.04C767.736 1318.13 749.763 1316 739.35 1311.56" fill="#56548C"/>
<path d="M742.576 1260.96L714.216 1268.26C711.59 1268.94 708.856 1267.36 708.15 1264.69C708.043 1264.21 707.976 1263.76 708.003 1263.29C708.083 1261.14 709.563 1259.18 711.723 1258.61L733.416 1253.01C736.243 1255.73 739.363 1258.38 742.576 1260.96" fill="#3D3C3B"/>
<path d="M757.297 1272.11L729.817 1279.21C727.15 1279.89 724.43 1278.27 723.75 1275.63C723.617 1275.16 723.577 1274.68 723.604 1274.21C723.67 1272.07 725.137 1270.11 727.324 1269.56L747.03 1264.48C750.497 1267.12 753.99 1269.69 757.297 1272.11" fill="#3D3C3B"/>
<path d="M770.937 1282.57L744.403 1289.42C741.737 1290.09 739.003 1288.5 738.323 1285.84C738.19 1285.36 738.163 1284.89 738.176 1284.44C738.256 1282.3 739.71 1280.33 741.896 1279.78L761.057 1274.85C764.75 1277.57 768.07 1280.1 770.696 1282.37L770.937 1282.57" fill="#3D3C3B"/>
<path d="M570.843 462.305C570.843 462.305 589.71 459.252 595.19 457.772L599.23 465.238C599.23 465.238 587.39 468.238 570.843 462.305" fill="#892959"/>
</svg>
