<svg width="131" height="293" viewBox="0 0 131 293" fill="none" xmlns="http://www.w3.org/2000/svg">
<path d="M130.96 279.148C130.96 286.773 101.644 292.956 65.4796 292.956C29.3169 292.956 0 286.773 0 279.148C0 271.521 29.3169 265.338 65.4796 265.338C101.644 265.338 130.96 271.521 130.96 279.148Z" fill="#E5E5E0"/>
<path d="M73.9862 25.8661C73.9862 25.8661 72.7555 32.7541 64.3915 31.0328C56.0275 29.3101 41.0222 18.7328 33.6409 21.1928C26.2609 23.6528 26.5075 27.0955 28.2289 27.0955C29.9515 27.0955 34.6249 28.5728 34.6249 28.5728C34.6249 28.5728 26.5075 28.0808 18.1435 35.4608C9.77954 42.8408 9.04102 55.8795 12.9769 57.3555C16.9129 58.8301 17.4049 51.9421 24.5396 47.7608C31.6729 43.5781 37.8236 44.0715 37.8236 44.0715C37.8236 44.0715 31.9195 48.4982 34.1342 50.4675C36.3475 52.4342 40.0382 48.0075 43.2355 47.5141C46.4342 47.0221 52.8289 50.2208 59.7182 47.5141C66.6062 44.8088 68.5742 40.6261 71.7729 34.7221C74.9702 28.8195 75.4622 28.0808 73.9862 25.8661" fill="#3C3565"/>
<path d="M113.346 17.5022C113.346 17.5022 111.87 19.7168 108.673 21.4382C105.474 23.1608 98.0943 23.8982 98.0943 23.8982L97.6023 18.4861C97.6023 18.4861 109.902 15.2888 113.346 17.5022Z" fill="#B4A895"/>
<path d="M94.4049 3.23423C87.0236 -1.93244 81.1195 -0.701792 76.1995 5.44887C71.2795 11.5982 70.7875 13.5662 71.5262 16.2715C71.7262 17.0075 71.9249 17.6795 72.1102 18.2808L73.5955 23.3808C73.5955 23.3808 77.2636 28.5596 79.2049 26.4009C80.3969 25.0769 81.1009 19.8515 81.4662 16.0129C83.3809 15.1529 85.5102 14.3582 87.7622 13.8129C95.8809 11.8449 98.3396 11.8448 98.3396 11.8448C98.3396 11.8448 101.784 8.40089 94.4049 3.23423" fill="#3C3565"/>
<path d="M95.3876 54.1569C95.3876 54.1569 103.998 56.1248 105.72 59.8142C107.442 63.5048 110.886 77.2809 114.822 87.3676C118.758 97.4542 116.79 95.4862 118.513 99.4209C120.234 103.357 124.417 97.6995 124.662 100.16C124.909 102.62 124.17 109.508 120.726 114.92C117.282 120.332 115.561 121.808 110.886 114.181C106.213 106.556 98.0943 83.4315 98.0943 81.4635C98.0943 79.4955 93.6663 63.7515 92.9289 60.5528C92.1903 57.3555 91.4516 52.1889 95.3876 54.1569Z" fill="#F89D87"/>
<path d="M57.0116 171.746C57.0116 171.746 57.5036 197.085 56.2729 200.774C55.0436 204.465 50.8609 206.186 41.7596 206.433C32.6582 206.679 26.2609 205.941 24.2929 205.694C22.3249 205.449 19.1276 203.481 16.9129 204.218C14.6996 204.957 13.7156 208.154 13.9609 212.091C14.2076 216.026 16.4209 217.257 14.9449 220.947C13.4689 224.637 14.6996 230.049 15.4369 233.247C16.1756 236.445 18.3889 238.413 19.3729 236.445C20.3569 234.477 25.5236 216.026 25.5236 216.026C25.5236 216.026 53.0756 219.47 59.7183 219.47C66.3596 219.47 70.0503 219.962 73.7396 210.614C77.4303 201.266 80.6276 179.126 80.8742 178.142C81.1196 177.158 61.6862 165.35 57.0116 171.746" fill="#F47070"/>
<path d="M78.4142 28.3263C78.4142 28.3263 77.4302 37.1836 76.1996 42.5956C74.9702 48.0076 74.2316 50.2209 74.2316 50.2209C74.2316 50.2209 61.1942 47.5143 57.2582 48.4983C53.3222 49.4836 53.3222 54.1569 53.5676 62.5209C53.8142 70.8849 56.7662 102.62 55.2902 106.31C53.8142 110 52.3382 115.166 45.2036 123.284C38.0702 131.402 35.8556 142.718 37.5782 150.345C39.2996 157.97 46.9249 164.366 53.8142 172.977C60.7022 181.586 72.5102 196.101 72.5102 199.792C72.5102 203.481 71.7729 221.93 74.9702 231.28C78.1676 240.626 88.2542 259.077 90.4676 267.196C92.6822 275.314 94.6502 284.416 96.6182 285.153C98.5862 285.892 121.465 271.377 123.186 269.656C124.909 267.933 126.63 265.72 124.17 264.982C121.71 264.244 110.64 264.982 107.689 264.244C104.737 263.505 103.998 263.26 103.014 262.521C102.03 261.784 94.6502 229.065 93.1742 223.653C91.6982 218.241 91.6982 196.101 88.7462 188.474C85.7942 180.848 83.0876 173.96 83.0876 173.96C83.0876 173.96 90.2222 152.804 90.2222 139.274C90.2222 125.744 91.2062 109.262 91.2062 106.556C91.2062 103.849 90.9609 99.9129 93.1742 97.4543C95.3876 94.9929 101.046 89.5809 102.03 87.1209C103.014 84.6609 99.8169 73.3449 98.3396 68.6716C96.8636 63.9969 95.3876 54.1569 95.3876 54.1569L86.5316 51.2049L87.7622 39.6422C87.7622 39.6422 85.0556 32.2623 83.0876 30.0489C81.1196 27.8343 78.4142 28.3263 78.4142 28.3263" fill="#F89D87"/>
<path d="M76.6915 23.8983C76.6915 23.8983 73.9862 17.7489 72.0182 20.9462C70.0502 24.1449 71.7729 29.3102 73.7396 30.0489C75.7076 30.7862 76.9382 29.3102 76.9382 29.3102C76.9382 29.3102 85.5489 43.8249 90.7142 44.5623C95.8809 45.3009 99.8169 32.7542 100.062 27.3422C100.308 21.9302 99.0782 15.5342 95.8809 14.5502C92.6822 13.5662 81.1196 15.2889 79.1516 16.7649C77.1836 18.2409 76.6915 23.8983 76.6915 23.8983" fill="#F89D87"/>
<path d="M74.4782 20.7009L80.3822 18.2409C80.3822 18.2409 88.0075 23.1609 92.4369 22.4222C96.8635 21.6849 107.442 17.9943 110.394 17.7489C113.346 17.5023 113.346 17.5022 113.346 17.5022C113.346 17.5022 101.538 11.3516 97.6022 9.87692C93.6662 8.40092 84.3182 10.6142 79.6435 13.3196C74.9702 16.0262 72.0182 20.9463 72.0182 20.9463C72.0182 20.9463 73.2475 18.9783 74.4782 20.7009" fill="#F0354E"/>
<path d="M90.2222 139.274C90.2222 133.455 90.4049 127.095 90.6116 121.514C85.8569 122.237 77.5009 122.629 67.3436 119.347C60.2502 117.055 55.2956 115.202 51.9689 113.847C50.5302 116.473 48.4809 119.555 45.2036 123.283C38.0702 131.402 35.8556 142.718 37.5782 150.345C38.5156 154.499 41.2302 158.297 44.5996 162.278C45.2462 160.63 48.3396 153.849 56.5196 150.835C65.8676 147.391 71.0342 150.835 71.0342 150.835L83.0876 173.959C83.0876 173.959 90.2222 152.803 90.2222 139.274" fill="#56AFE5"/>
<path d="M90.4316 126.902C90.7196 117.185 91.2063 108.458 91.2063 106.555C91.2063 103.849 90.9609 99.9127 93.1743 97.4527C95.3876 94.9927 101.046 89.5807 102.03 87.1207C103.014 84.6607 99.8169 73.3447 98.3396 68.6714C96.8636 63.9967 95.3876 54.1567 95.3876 54.1567L88.5916 51.8901L92.1903 77.5274C92.1903 77.5274 87.2703 78.2647 79.3983 76.0514C71.5249 73.8367 68.0823 72.6074 68.0823 72.6074C68.0823 72.6074 73.0023 57.846 73.0023 51.6967C73.0023 51.0874 73.0023 50.5287 73.0023 49.9767C71.5076 49.69 68.8396 49.2047 66.0623 48.8274C65.8756 52.6647 65.2663 58.486 63.4076 64.4887C61.4196 70.91 57.3449 75.522 54.5423 78.0967C55.3583 89.986 56.2383 103.938 55.2903 106.309C54.1809 109.081 53.0703 112.686 49.5649 117.747C52.8503 121.175 60.0863 126.994 72.5103 128.695C81.2889 129.898 86.9356 128.57 90.4316 126.902" fill="#F0354E"/>
<path d="M63.1622 48.4983C63.1622 48.4983 56.0276 44.8089 51.3542 46.5302C46.6796 48.2529 41.7596 60.3076 40.0382 63.0129C38.3156 65.7196 17.1595 96.7155 17.1595 98.9289C17.1595 101.144 24.5395 103.604 27.4915 101.389C30.4435 99.1756 57.7489 62.0289 57.7489 62.0289" fill="#F89D87"/>
<path d="M29.2143 92.7794C29.2143 92.7794 35.609 95.7314 41.7596 98.6834C47.9103 101.635 57.0116 104.587 57.0116 104.587C57.0116 104.587 62.6703 99.6674 64.3916 99.1754C66.1143 98.6834 71.0343 101.881 71.0343 101.881C71.0343 101.881 71.2796 103.603 70.0503 103.603C68.8196 103.603 68.8196 103.603 68.8196 103.603C68.8196 103.603 73.4943 104.342 73.4943 105.079C73.4943 105.818 73.7396 107.786 73.0023 108.523C72.2636 109.262 71.2796 110.491 70.0503 111.721C68.8196 112.951 67.8356 114.919 63.1623 114.919C58.4876 114.919 52.5836 111.23 52.5836 111.23C52.5836 111.23 45.449 109.754 36.3476 107.786C27.245 105.818 18.389 100.159 17.1596 98.9287C15.929 97.6994 20.849 93.0247 20.849 93.0247" fill="#F89D87"/>
<path d="M118.513 89.0889C118.513 89.0889 114.084 88.3515 113.593 89.8275C113.101 91.3035 112.608 96.7155 113.593 97.9449C114.577 99.1755 116.79 98.1915 117.037 96.4689C117.282 94.7475 118.513 89.0889 118.513 89.0889" fill="#F9AC9A"/>
<path d="M118.513 89.0888C118.513 89.0888 116.545 88.5981 116.79 92.5328C117.037 96.4688 118.021 103.357 119.25 103.849C120.481 104.342 125.401 104.342 126.877 102.374C128.353 100.405 127.122 92.0408 126.63 90.5648C126.138 89.0888 120.234 88.8434 118.513 89.0888Z" fill="#F89D87"/>
<path d="M22.8169 218.241C21.8329 218.241 21.5876 217.749 21.8329 212.582C22.0796 207.417 24.2942 205.694 24.2942 205.694C22.3249 205.449 19.1276 203.481 16.9129 204.218C14.6996 204.957 13.7156 208.154 13.9609 212.091C14.2076 216.026 16.4209 217.257 14.9449 220.947C13.4689 224.637 14.6996 230.049 15.4383 233.247C16.1756 236.445 18.3889 238.413 19.3729 236.445C20.1556 234.882 23.5676 222.947 24.9409 218.091C24.0889 218.101 23.2569 218.241 22.8169 218.241Z" fill="#F0354E"/>
<path d="M124.17 264.982C121.71 264.244 110.641 264.982 107.689 264.244C105.372 263.665 104.421 263.385 103.642 262.937C102.905 263.218 102.228 263.794 102.03 264.982C101.538 267.933 101.538 270.64 101.538 270.64C101.538 270.64 96.8636 273.592 93.9129 274.576C93.4223 274.738 92.9529 274.817 92.4956 274.872C93.9223 280.22 95.2703 284.649 96.6183 285.153C98.5863 285.892 121.465 271.377 123.186 269.656C124.909 267.933 126.63 265.72 124.17 264.982" fill="#F0354E"/>
<path d="M54.0596 121.562C54.0596 121.562 44.7116 128.942 45.2036 131.155C45.6956 133.37 47.6636 134.107 45.9409 136.075C44.2196 138.043 42.2516 138.782 42.4969 140.258C42.7436 141.734 47.6636 152.066 49.8782 153.789" stroke="#3C3565" stroke-width="0.666667" stroke-miterlimit="10"/>
</svg>
