<svg width="205" height="267" viewBox="0 0 205 267" fill="none" xmlns="http://www.w3.org/2000/svg">
<path d="M52.5506 252.597C52.5506 260.221 81.8679 266.404 118.032 266.404C154.195 266.404 183.511 260.221 183.511 252.597C183.511 244.97 154.195 238.787 118.032 238.787C81.8679 238.787 52.5506 244.97 52.5506 252.597" fill="#E5E5E0"/>
<path d="M113.897 50.0312C113.897 50.0312 98.4746 64.0259 91.3346 69.1672C84.1946 74.3086 78.4826 78.5926 80.4813 84.5899C82.4813 90.5886 93.9053 113.151 95.3333 115.722C96.7613 118.293 102.76 113.722 103.329 111.723C103.901 109.723 106.759 101.441 105.043 97.4419C103.329 93.4432 100.188 85.1606 100.188 85.1606L111.899 77.4499C111.899 77.4499 114.469 69.4526 116.183 61.7419C117.896 54.0299 119.609 42.6046 113.897 50.0312" fill="#CD3C4F"/>
<path d="M130.177 193.694L144.458 191.123L160.167 183.126C160.167 183.126 149.334 176.994 141.945 178.958C134.554 180.922 130.605 190.981 130.177 193.694Z" fill="#36314B"/>
<path d="M84.7651 188.267C84.7651 188.267 80.1958 185.411 69.3425 187.125C58.4878 188.838 45.9225 191.409 36.7825 191.409C27.6438 191.409 22.5025 192.266 20.7878 191.409C19.0745 190.551 12.2199 181.127 11.0772 182.841C9.93453 184.554 3.93714 195.693 2.22381 203.69C0.510477 211.687 -1.48953 215.686 1.6518 215.971C4.79447 216.257 14.2185 202.547 15.0758 201.976C15.9318 201.405 45.0651 201.976 61.0598 203.69C77.0531 205.404 92.1919 207.117 98.4745 203.69C104.759 200.263 107.614 197.406 105.614 193.979C103.616 190.551 84.7651 188.267 84.7651 188.267" fill="#F89D87"/>
<path d="M136.461 180.841C136.461 180.841 139.602 190.837 141.601 202.547C143.601 214.258 145.885 221.969 152.169 228.824C158.453 235.678 164.451 244.247 165.308 246.818C166.164 249.387 169.306 259.099 170.734 259.383C172.162 259.67 180.158 255.385 183.016 253.671C185.872 251.958 193.297 248.817 195.297 246.246C197.296 243.675 199.296 239.676 197.296 239.676C195.297 239.676 184.443 242.534 180.731 242.247C177.017 241.962 175.59 240.534 173.59 236.822C171.592 233.107 163.878 214.829 160.737 205.118C157.596 195.407 157.596 184.269 155.596 179.985C153.597 175.701 154.454 172.558 147.598 171.987C140.745 171.417 136.461 180.841 136.461 180.841Z" fill="#F89D87"/>
<path d="M96.1905 127.717C96.1905 127.717 92.1918 132.859 92.1918 139.142C92.1918 145.426 93.0478 150.566 92.7625 152.279C92.4771 153.993 81.3371 185.697 81.3371 186.553C81.3371 187.41 88.7638 195.979 97.3318 198.264C105.901 200.547 107.328 199.978 107.328 199.978L123.322 161.991L130.177 193.694C130.177 193.694 139.888 184.554 143.601 182.269C147.314 179.985 160.167 183.126 160.167 183.126C160.167 183.126 155.882 170.559 148.742 155.137C141.601 139.713 140.46 135.714 140.173 129.717C139.888 123.718 140.173 120.577 140.173 120.577L96.1905 127.717" fill="#3C3565"/>
<path d="M97.0466 118.578L93.9053 129.717C93.9053 129.717 104.187 136.286 116.183 134.286C128.179 132.287 140.173 129.717 140.173 129.717V125.433L97.0466 118.578" fill="#CD3C4F"/>
<path d="M113.327 52.3166C113.327 52.3166 109.613 77.1632 103.329 93.4432C97.0466 109.723 90.4786 117.15 98.4746 121.719C106.472 126.289 133.319 127.717 137.889 127.717C142.459 127.717 142.744 125.718 144.459 119.435C146.172 113.151 156.168 59.7419 154.455 54.0299C152.741 48.3179 151.884 45.7472 148.171 43.1766C144.459 40.6059 123.323 41.7486 119.896 44.6046C116.468 47.4606 113.327 52.3166 113.327 52.3166Z" fill="#F0354E"/>
<path d="M140.173 26.8966L136.175 37.4646L144.459 44.8899L149.315 30.0392C149.315 30.0392 144.459 23.4699 140.173 26.8966Z" fill="#F47070"/>
<path d="M140.46 29.7524C140.46 29.7524 137.033 27.1818 135.889 17.1858C134.748 7.18977 144.459 0.620437 151.313 0.0484366C158.167 -0.52223 164.736 4.04712 165.308 8.33112C165.879 12.6151 164.165 18.6138 164.165 19.4711C164.165 20.3271 166.736 27.7538 165.879 28.8951C165.023 30.0391 163.309 31.4671 163.309 31.4671C163.309 31.4671 161.88 47.7458 160.167 50.3178C158.453 52.8871 156.74 53.4578 153.883 51.4591C151.028 49.4604 145.885 44.6045 144.459 40.6058C143.031 36.6071 145.029 30.6084 145.029 30.6084C145.029 30.6084 141.601 32.0378 140.46 29.7524" fill="#F89D87"/>
<path d="M160.167 50.3178C161.88 47.7458 163.309 31.4658 163.309 31.4658C163.309 31.4658 163.654 31.1711 164.088 30.7751C162.836 30.4551 161.082 31.3738 159.024 32.6084C156.168 34.3231 153.597 37.1778 149.884 35.4645C146.172 33.7511 149.599 30.3244 150.171 24.3258C150.741 18.3271 150.456 20.8991 151.597 18.3271C152.741 15.7578 151.597 16.0444 149.884 14.3284C148.171 12.6151 149.599 10.3311 157.025 8.90312C161.24 8.09379 163.848 9.30576 165.353 10.5071C165.395 9.69909 165.391 8.95379 165.308 8.33112C164.736 4.04712 158.167 -0.52223 151.313 0.0484366C144.459 0.620437 134.748 7.18977 135.889 17.1858C137.032 27.1818 140.46 29.7524 140.46 29.7524C141.601 32.0378 145.029 30.6084 145.029 30.6084C145.029 30.6084 143.031 36.6071 144.459 40.6058C145.885 44.6045 151.028 49.4604 153.882 51.4591C156.74 53.4578 158.453 52.8871 160.167 50.3178" fill="#3C3565"/>
<path d="M146.457 29.1819C146.457 29.1819 146.172 23.1832 144.459 22.3259C142.744 21.4699 140.745 21.7566 142.173 25.1832C143.601 28.6099 146.457 29.1819 146.457 29.1819" fill="#F89D87"/>
<path d="M153.883 51.4593C153.883 51.4593 149.884 43.1766 142.173 36.6073C134.461 30.0393 128.749 24.898 124.752 26.8967C120.753 28.8953 113.327 40.606 111.612 46.6033C109.899 52.602 108.472 56.3153 109.613 56.886C110.756 57.4566 132.463 48.318 134.461 48.0326C136.461 47.746 153.883 51.4593 153.883 51.4593" fill="#CD3C4F"/>
<path d="M183.301 101.441C183.301 101.441 191.299 96.014 193.012 95.158C194.725 94.3006 199.581 98.2993 199.581 98.2993C199.581 98.2993 203.295 97.7286 203.865 99.442C204.436 101.157 204.721 103.726 203.865 104.011C203.008 104.298 201.867 104.583 201.58 105.439C201.295 106.297 201.009 109.438 199.009 110.867C197.011 112.294 193.012 112.294 190.155 112.009C187.3 111.723 183.587 111.153 183.587 111.153L183.301 101.441Z" fill="#F89D87"/>
<path d="M176.447 101.157L183.301 101.441L183.873 113.437L177.017 114.007L176.447 101.157Z" fill="#CD3C4F"/>
<path d="M135.033 57.4564C133.891 57.4564 128.464 55.4577 127.607 64.3124C126.751 73.1657 125.608 106.868 127.321 111.436C129.036 116.007 132.748 117.435 137.033 117.435C141.317 117.435 175.019 116.864 177.017 114.007C179.017 111.152 180.445 102.583 176.447 101.156C172.448 99.7271 149.884 98.5857 148.743 95.1577C147.599 91.7297 151.884 74.3084 149.884 67.7391C147.885 61.1697 144.459 58.0284 144.459 58.0284" fill="#F0354E"/>
<path d="M11.0786 182.841C9.93459 184.554 3.93724 195.693 2.2239 203.69C0.510569 211.687 -1.48944 215.686 1.6519 215.971C4.60523 216.239 13.1079 204.146 14.8292 202.219C14.6679 201.585 14.4173 200.823 13.9333 199.978C12.7919 197.978 9.93458 199.978 9.93458 199.978C9.93458 199.978 11.9346 195.693 15.0759 192.55C17.8173 189.811 20.1199 190.981 20.6639 191.324C18.7853 190.151 12.1973 181.161 11.0786 182.841Z" fill="#F0354E"/>
<path d="M195.297 246.246C197.296 243.675 199.296 239.676 197.296 239.676C195.297 239.676 184.443 242.534 180.731 242.247C178.987 242.112 177.756 241.712 176.724 240.957C175.654 241.522 174.585 242.276 174.447 243.104C174.161 244.818 174.733 246.531 174.733 246.531C174.733 246.531 173.876 247.102 170.448 248.817C169.113 249.485 167.742 250.061 166.557 250.521C167.866 254.288 169.725 259.182 170.734 259.383C172.162 259.67 180.158 255.385 183.016 253.671C185.872 251.958 193.297 248.817 195.297 246.246" fill="#F0354E"/>
</svg>
